/* XPM */
static const char *plyv_128[] = {
/* columns rows colors chars-per-pixel */
"128 128 4 1 ",
"  c gray75",
". c #C0C0C0",
"X c #C1C1C1",
"o c None",
/* pixels */
"oooooooooooooooooooooooooooooooooooooooooooooooooooooooooooooooooooooooooooooooooooooooooooooooooooooooooooooooooooooooooooooooo",
"oooooooooooooooooooooooooooooooooooooooooooooooooooooooooooooooooooooooooooooooooooooooooooooooooooooooooooooooooooooooooooooooo",
"oooooooooooooooooooooooooooooooooooooooooooooooooooooooooooooooooooooooooooooooooooooooooooooooooooooooooooooooooooooooooooooooo",
"oooooooooooooooooooooooooooooooooooooooooooooooooooooooooooooooooooooooooooooooooooooooooooooooooooooooooooooooooooooooooooooooo",
"oooooooooooooooooooooooooooooooooooooooooooooooooooooooooooooooooooooooooooooooooooooooooooooooooooooooooooooooooooooooooooooooo",
"oooooooooooooooooooooooooooooooooooooooooooooooooooooooooooooooooooooooooooooooooooooooooooooooooooooooooooooooooooooooooooooooo",
"oooooooooooooooooooooooooooooooooooooooooooooooooooooooooooooooooooooooooooooooooooooooooooooooooooooooooooooooooooooooooooooooo",
"oooooooooooooooooooooooooooooooooooooooooooooooooooooooooooooooooooooooooooooooooooooooooooooooooooooooooooooooooooooooooooooooo",
"oooooooooooooooooooooooooooooooooooooooooooooooooooooooooooooooooooooooooooooooooooooooooooooooooooooooooooooooooooooooooooooooo",
"oooooooooooooooooooooooooooooooooooooooooooooooooooooooooooooooooooooooooooooooooooooooooooooooooooooooooooooooooooooooooooooooo",
"oooooooooooooooooooooooooooooooooooooooooooooooooooooooooooooooooooooooooooooooooooooooooooooooooooooooooooooooooooooooooooooooo",
"oooooooooooooooooooooooooooooooooooooooooooooooooooooooooooooooooooooooooooooooooooooooooooooooooooooooooooooooooooooooooooooooo",
"oooooooooooooooooooooooooooooooooooooooooooooooooooooooooooooooooooooooooooooooooooooooooooooooooooooooooooooooooooooooooooooooo",
"oooooooooooooooooooooooooooooooooooooooooooooooooooooooooooooooooooooooooooooooooooooooooooooooooooooooooooooooooooooooooooooooo",
"oooooooooooooooooooooooooooooooooooooooooooooooooooooooooooooooooooooooooooooooooooooooooooooooooooooooooooooooooooooooooooooooo",
"oooooooooooooooooooooooooooooooooooooooooooooooooooooooooooooooooooooooooooooooooooooooooooooooooooooooooooooooooooooooooooooooo",
"oooooooooooooooooooooooooooooooooooooooooooooooooooooooooooooooooooooooooooooooooooooooooooooooooooooooooooooooooooooooooooooooo",
"oooooooooooooooooooooooooooooooooooooooooooooooooooooooooooooooooooooooooooooooooooooooooooooooooooooooooooooooooooooooooooooooo",
"oooooooooooooooooooooooooooooooooooooooooooooooooooooooooooooooooooooooooooooooooooooooooooooooooooooooooooooooooooooooooooooooo",
"oooooooooooooooooooooooooooooooooooooooooooooooooooooooooooooooooooooooooooooooooooooooooooooooooooooooooooooooooooooooooooooooo",
"oooooooooooooooooooooooooooooooooooooooooooooooooooooooooooooooooooooooooooooooooooooooooooooooooooooooooooooooooooooooooooooooo",
"oooooooooooooooooooooooooooooooooooooooooooooooooooooooooooooooooooooooooooooooooooooooooooooooooooooooooooooooooooooooooooooooo",
"oooooooooooooooooooooooooooooooooooooooooooooooooooooooooooooooooooooooooooooooooooooooooooooooooooooooooooooooooooooooooooooooo",
"oooooooooooooooooooooooooooooooooooooooooooooooooooooooooooooooooooooooooooooooooooooooooooooooooooooooooooooooooooooooooooooooo",
"oooooooooooooooooooooooooooooooooooooooooooooooooooooooooooooooooooooooooooooooooooooooooooooooooooooooooooooooooooooooooooooooo",
"oooooooooooooooooooooooooooooooooooooooooooooooooooooooooooooooooooooooooooooooooooooooooooooooooooooooooooooooooooooooooooooooo",
"oooooooooooooooooooooooooooooooooooooooooooooooooooooooooooooooooooooooooooooooooooooooooooooooooooooooooooooooooooooooooooooooo",
"oooooooooooooooooooooooooooooooooooooooooooooooooooooooooooooooooooooooooooooooooooooooooooooooooooooooooooooooooooooooooooooooo",
"oooooooooooooooooooooooooooooooooooooooooooooooooooooooooooooooooooooooooooooooooooooooooooooooooooooooooooooooooooooooooooooooo",
"oooooooooooooooooooooooooooooooooooooooooooooooooooooooooooooooooooooooooooooooooooooooooooooooooooooooooooooooooooooooooooooooo",
"oooooooooooooooooooooooooooooooooooooooooooooooooooooooooooooooooooooooooooooooooooooooooooooooooooooooooooooooooooooooooooooooo",
"oooooooooooooooooooooooooooooooooooooooooooooooooooooooooooooooooooooooooooooooooooooooooooooooooooooooooooooooooooooooooooooooo",
"oooooooooooooooooooooooooooooooooooooooooooooooo..........oooooooooooooooooooooooooooooooooooooooooooooooooooooooooooooooooooooo",
"oooooooooooooooooooooooooooooooooooooooooooooooo..........oooooooooooooooooooooooooooooooooooooooooooooooooooooooooooooooooooooo",
"oooooooooooooooooooooooooooooooooooooooooooooooo..........oooooooooooooooooooooooooooooooooooooooooooooooooooooooooooooooooooooo",
"oooooooooooooooooooooooooooooooooooooooooooooooo..........oooooooooooooooooooooooooooooooooooooooooooooooooooooooooooooooooooooo",
"ooooooooooooooooooooooooooooooooooooooooooooooo ..........oooooooooooooooooooooooooooooooooooooooooooooooooooooooooooooooooooooo",
"ooooooooooooooooooooooooooooooooooooooooooooooo...........oooooooooooooooooooooooooooooooooooooooooooooooooooooooooooooooooooooo",
"ooooooooooooooooooooooooooooooooooooooooooooooo..........ooooooooooooooooooooooooooooooooooooooooooooooooooooooooooooooooooooooo",
"ooooooooooooooooooooooooooooooooooooooooooooooo..........ooooooooooooooooooooooooooooooooooooooooooooooooooooooooooooooooooooooo",
"ooooooooooooooooooooooooooooooooooooooooooooooo..........ooooooooooooooooooooooooooooooooooooooooooooooooooooooooooooooooooooooo",
"ooooooooooooooooooooooooooooooooooooooooooooooo..........ooooooooooooooooooooooooooooooooooooooooooooooooooooooooooooooooooooooo",
"oooooooooooooooooooooooooooooooooooooooooooooo...........ooooooooooooooooooooooooooooooooooooooooooooooooooooooooooooooooooooooo",
"oooooooooooooooooooooooooooooooooooooooooooooo...........ooooooooooooooooooooooooooooooooooooooooooooooooooooooooooooooooooooooo",
"oooooooooooooooooooooooooooooooooooooooooooooo..........oooooooooooooooooooooooooooooooooooooooooooooooooooooooooooooooooooooooo",
"ooooooooooooooooooooooooo......ooooooooooooooo..........oooooooooooooooooooooooooooooooooooooooooooooooooooooooooooooooooooooooo",
"oooooooooo..........oo ..........ooooooooooooo..........oooo..........ooooooooooo.....................oooooooooo...........ooooo",
"oooooooooo..........o.............oooooooooooo..........oooo..........oooooooooo......................oooooooooo...........ooooo",
"oooooooooo.........................oooooooooo.......... oooo...........ooooooooo...........o..........ooooooooo...........oooooo",
"oooooooooo..........................ooooooooo..........ooooo...........oooooooo...........oo..........ooooooooo...........oooooo",
"oooooooooo..........................ooooooooo..........ooooo...........oooooooo...........oo...........oooooooo..........ooooooo",
"oooooooooo...........................oooooooo..........ooooo...........ooooooo...........ooo...........ooooooo...........ooooooo",
"ooooooooo............................oooooooo..........oooooo..........ooooooo...........oooo..........ooooooo..........oooooooo",
"ooooooooo..............ooo............oooooo...........oooooo..........oooooo...........ooooo..........oooooo...........oooooooo",
"ooooooooo............oooooo...........oooooo...........oooooo..........oooooo...........ooooo..........oooooo..........ooooooooo",
"ooooooooo...........oooooooo..........oooooo..........ooooooo..........oooooo..........oooooo..........oooooo..........ooooooooo",
"ooooooooo..........ooooooooo..........oooooo..........ooooooo..........ooooo...........oooooo..........ooooo..........oooooooooo",
"ooooooooo..........ooooooooo..........oooooo..........ooooooo..........ooooo..........ooooooo..........ooooo..........oooooooooo",
"oooooooo...........ooooooooo..........oooooo..........oooooooo.........oooo...........oooooooo.........oooo...........oooooooooo",
"oooooooo...........ooooooooo..........ooooo...........oooooooo..........ooo..........ooooooooo.........oooo..........ooooooooooo",
"oooooooo..........oooooooooo..........ooooo.......... oooooooo..........oo...........ooooooooo.........oooo..........ooooooooooo",
"oooooooo..........oooooooooo..........ooooo..........ooooooooo..........oo..........oooooooooo.........ooo..........oooooooooooo",
"oooooooo..........oooooooooo..........ooooo..........ooooooooo..........o...........oooooooooo..........oo..........oooooooooooo",
"oooooooo..........oooooooooo..........ooooo..........ooooooooo..........o..........ooooooooooo..........o..........ooooooooooooo",
"ooooooo...........ooooooooo..........Xooooo..........oooooooooo....................oooooooooooo.........o..........ooooooooooooo",
"ooooooo..........oooooooooo...........oooo...........oooooooooo...................ooooooooooooo.........o.........oooooooooooooo",
"ooooooo..........oooooooooo..........ooooo...........oooooooooo...................ooooooooooooo...................oooooooooooooo",
"ooooooo..........oooooooooo..........ooooo..........ooooooooooo..................oooooooooooooo..................ooooooooooooooo",
"ooooooo..........ooooooooo...........ooooo..........ooooooooooo..................oooooooooooooo..................ooooooooooooooo",
"oooooo...........ooooooooo..........oooooo..........ooooooooooo.................ooooooooooooooo.................oooooooooooooooo",
"ooooooX..........oooooooo...........oooooo..........oooooooooooo................oooooooooooooooo................oooooooooooooooo",
"oooooo............oooooo............ooooo..........Xoooooooooooo...............ooooooooooooooooo...............ooooooooooooooooo",
"oooooo...............X.............oooooo...........oooooooooooo...............ooooooooooooooooo...............ooooooooooooooooo",
"oooooo............................Xoooooo..........ooooooooooooo..............oooooooooooooooooo..............oooooooooooooooooo",
"oooooo............................ooooooo..........ooooooooooooo..............oooooooooooooooooo..............oooooooooooooooooo",
"ooooo............................oooooooo..........ooooooooooooo.............ooooooooooooooooooo.............Xoooooooooooooooooo",
"ooooo...........................oooooooo...........oooooooooooooo............oooooooooooooooooooX............ooooooooooooooooooo",
"ooooo..........X...............ooooooooo...........oooooooooooooo...........ooooooooooooooooooooo............ooooooooooooooooooo",
"ooooo..........oo.............oooooooooo..........ooooooooooooooo...........ooooooooooooooooooooo...........oooooooooooooooooooo",
"ooooo..........oooo.........oooooooooooo..........ooooooooooooooo..........oooooooooooooooooooooo...........oooooooooooooooooooo",
"ooooo..........oooooooooooooooooooooooooooooooooooooooooooooooooo..........ooooooooooooooooooooooooooooooooooooooooooooooooooooo",
"oooo...........ooooooooooooooooooooooooooooooooooooooooooooooooo..........oooooooooooooooooooooooooooooooooooooooooooooooooooooo",
"oooo..........Xooooooooooooooooooooooooooooooooooooooooooooooooo..........oooooooooooooooooooooooooooooooooooooooooooooooooooooo",
"oooo..........Xoooooooooooooooooooooooooooooooooooooooooooooooo..........ooooooooooooooooooooooooooooooooooooooooooooooooooooooo",
"oooo..........oooooooooooooooooooooooooooooooooooooooooooooooo...........ooooooooooooooooooooooooooooooooooooooooooooooooooooooo",
"oooo..........oooooooooooooooooooooooooooooooooooooooooooooo............oooooooooooooooooooooooooooooooooooooooooooooooooooooooo",
"oooo..........ooooooooooooooooooooooooooooooooooooooooooo...............oooooooooooooooooooooooooooooooooooooooooooooooooooooooo",
"oooo.........Xoooooooooooooooooooooooooooooooooooooooooo...............ooooooooooooooooooooooooooooooooooooooooooooooooooooooooo",
"oooo.........Xoooooooooooooooooooooooooooooooooooooooooo..............oooooooooooooooooooooooooooooooooooooooooooooooooooooooooo",
"oooo.........ooooooooooooooooooooooooooooooooooooooooooo..............oooooooooooooooooooooooooooooooooooooooooooooooooooooooooo",
"oooo.........ooooooooooooooooooooooooooooooooooooooooooo.............ooooooooooooooooooooooooooooooooooooooooooooooooooooooooooo",
"oooo.........ooooooooooooooooooooooooooooooooooooooooooo............oooooooooooooooooooooooooooooooooooooooooooooooooooooooooooo",
"oooo.........ooooooooooooooooooooooooooooooooooooooooooo..........oooooooooooooooooooooooooooooooooooooooooooooooooooooooooooooo",
"ooooooooooooooooooooooooooooooooooooooooooooooooooooooooo.......oooooooooooooooooooooooooooooooooooooooooooooooooooooooooooooooo",
"oooooooooooooooooooooooooooooooooooooooooooooooooooooooooooooooooooooooooooooooooooooooooooooooooooooooooooooooooooooooooooooooo",
"oooooooooooooooooooooooooooooooooooooooooooooooooooooooooooooooooooooooooooooooooooooooooooooooooooooooooooooooooooooooooooooooo",
"oooooooooooooooooooooooooooooooooooooooooooooooooooooooooooooooooooooooooooooooooooooooooooooooooooooooooooooooooooooooooooooooo",
"oooooooooooooooooooooooooooooooooooooooooooooooooooooooooooooooooooooooooooooooooooooooooooooooooooooooooooooooooooooooooooooooo",
"oooooooooooooooooooooooooooooooooooooooooooooooooooooooooooooooooooooooooooooooooooooooooooooooooooooooooooooooooooooooooooooooo",
"oooooooooooooooooooooooooooooooooooooooooooooooooooooooooooooooooooooooooooooooooooooooooooooooooooooooooooooooooooooooooooooooo",
"oooooooooooooooooooooooooooooooooooooooooooooooooooooooooooooooooooooooooooooooooooooooooooooooooooooooooooooooooooooooooooooooo",
"oooooooooooooooooooooooooooooooooooooooooooooooooooooooooooooooooooooooooooooooooooooooooooooooooooooooooooooooooooooooooooooooo",
"oooooooooooooooooooooooooooooooooooooooooooooooooooooooooooooooooooooooooooooooooooooooooooooooooooooooooooooooooooooooooooooooo",
"oooooooooooooooooooooooooooooooooooooooooooooooooooooooooooooooooooooooooooooooooooooooooooooooooooooooooooooooooooooooooooooooo",
"oooooooooooooooooooooooooooooooooooooooooooooooooooooooooooooooooooooooooooooooooooooooooooooooooooooooooooooooooooooooooooooooo",
"oooooooooooooooooooooooooooooooooooooooooooooooooooooooooooooooooooooooooooooooooooooooooooooooooooooooooooooooooooooooooooooooo",
"oooooooooooooooooooooooooooooooooooooooooooooooooooooooooooooooooooooooooooooooooooooooooooooooooooooooooooooooooooooooooooooooo",
"oooooooooooooooooooooooooooooooooooooooooooooooooooooooooooooooooooooooooooooooooooooooooooooooooooooooooooooooooooooooooooooooo",
"oooooooooooooooooooooooooooooooooooooooooooooooooooooooooooooooooooooooooooooooooooooooooooooooooooooooooooooooooooooooooooooooo",
"oooooooooooooooooooooooooooooooooooooooooooooooooooooooooooooooooooooooooooooooooooooooooooooooooooooooooooooooooooooooooooooooo",
"oooooooooooooooooooooooooooooooooooooooooooooooooooooooooooooooooooooooooooooooooooooooooooooooooooooooooooooooooooooooooooooooo",
"oooooooooooooooooooooooooooooooooooooooooooooooooooooooooooooooooooooooooooooooooooooooooooooooooooooooooooooooooooooooooooooooo",
"oooooooooooooooooooooooooooooooooooooooooooooooooooooooooooooooooooooooooooooooooooooooooooooooooooooooooooooooooooooooooooooooo",
"oooooooooooooooooooooooooooooooooooooooooooooooooooooooooooooooooooooooooooooooooooooooooooooooooooooooooooooooooooooooooooooooo",
"oooooooooooooooooooooooooooooooooooooooooooooooooooooooooooooooooooooooooooooooooooooooooooooooooooooooooooooooooooooooooooooooo",
"oooooooooooooooooooooooooooooooooooooooooooooooooooooooooooooooooooooooooooooooooooooooooooooooooooooooooooooooooooooooooooooooo",
"oooooooooooooooooooooooooooooooooooooooooooooooooooooooooooooooooooooooooooooooooooooooooooooooooooooooooooooooooooooooooooooooo",
"oooooooooooooooooooooooooooooooooooooooooooooooooooooooooooooooooooooooooooooooooooooooooooooooooooooooooooooooooooooooooooooooo",
"oooooooooooooooooooooooooooooooooooooooooooooooooooooooooooooooooooooooooooooooooooooooooooooooooooooooooooooooooooooooooooooooo",
"oooooooooooooooooooooooooooooooooooooooooooooooooooooooooooooooooooooooooooooooooooooooooooooooooooooooooooooooooooooooooooooooo",
"oooooooooooooooooooooooooooooooooooooooooooooooooooooooooooooooooooooooooooooooooooooooooooooooooooooooooooooooooooooooooooooooo",
"oooooooooooooooooooooooooooooooooooooooooooooooooooooooooooooooooooooooooooooooooooooooooooooooooooooooooooooooooooooooooooooooo",
"oooooooooooooooooooooooooooooooooooooooooooooooooooooooooooooooooooooooooooooooooooooooooooooooooooooooooooooooooooooooooooooooo",
"oooooooooooooooooooooooooooooooooooooooooooooooooooooooooooooooooooooooooooooooooooooooooooooooooooooooooooooooooooooooooooooooo",
"oooooooooooooooooooooooooooooooooooooooooooooooooooooooooooooooooooooooooooooooooooooooooooooooooooooooooooooooooooooooooooooooo",
"oooooooooooooooooooooooooooooooooooooooooooooooooooooooooooooooooooooooooooooooooooooooooooooooooooooooooooooooooooooooooooooooo",
"oooooooooooooooooooooooooooooooooooooooooooooooooooooooooooooooooooooooooooooooooooooooooooooooooooooooooooooooooooooooooooooooo",
"oooooooooooooooooooooooooooooooooooooooooooooooooooooooooooooooooooooooooooooooooooooooooooooooooooooooooooooooooooooooooooooooo"
};
