/* XPM */
static const char *sv_128[] = {
/* columns rows colors chars-per-pixel */
"128 128 4 1 ",
"  c gray75",
". c #C0C0C0",
"X c #C1C1C1",
"o c None",
/* pixels */
"oooooooooooooooooooooooooooooooooooooooooooooooooooooooooooooooooooooooooooooooooooooooooooooooooooooooooooooooooooooooooooooooo",
"oooooooooooooooooooooooooooooooooooooooooooooooooooooooooooooooooooooooooooooooooooooooooooooooooooooooooooooooooooooooooooooooo",
"oooooooooooooooooooooooooooooooooooooooooooooooooooooooooooooooooooooooooooooooooooooooooooooooooooooooooooooooooooooooooooooooo",
"oooooooooooooooooooooooooooooooooooooooooooooooooooooooooooooooooooooooooooooooooooooooooooooooooooooooooooooooooooooooooooooooo",
"oooooooooooooooooooooooooooooooooooooooooooooooooooooooooooooooooooooooooooooooooooooooooooooooooooooooooooooooooooooooooooooooo",
"oooooooooooooooooooooooooooooooooooooooooooooooooooooooooooooooooooooooooooooooooooooooooooooooooooooooooooooooooooooooooooooooo",
"oooooooooooooooooooooooooooooooooooooooooooooooooooooooooooooooooooooooooooooooooooooooooooooooooooooooooooooooooooooooooooooooo",
"oooooooooooooooooooooooooooooooooooooooooooooooooooooooooooooooooooooooooooooooooooooooooooooooooooooooooooooooooooooooooooooooo",
"oooooooooooooooooooooooooooooooooooooooooooooooooooooooooooooooooooooooooooooooooooooooooooooooooooooooooooooooooooooooooooooooo",
"oooooooooooooooooooooooooooooooooooooooooooooooooooooooooooooooooooooooooooooooooooooooooooooooooooooooooooooooooooooooooooooooo",
"oooooooooooooooooooooooooooooooooooooooooooooooooooooooooooooooooooooooooooooooooooooooooooooooooooooooooooooooooooooooooooooooo",
"oooooooooooooooooooooooooooooooooooooooooooooooooooooooooooooooooooooooooooooooooooooooooooooooooooooooooooooooooooooooooooooooo",
"oooooooooooooooooooooooooooooooooooooooooooooooooooooooooooooooooooooooooooooooooooooooooooooooooooooooooooooooooooooooooooooooo",
"oooooooooooooooooooooooooooooooooooooooooooooooooooooooooooooooooooooooooooooooooooooooooooooooooooooooooooooooooooooooooooooooo",
"oooooooooooooooooooooooooooooooooooooooooooooooooooooooooooooooooooooooooooooooooooooooooooooooooooooooooooooooooooooooooooooooo",
"oooooooooooooooooooooooooooooooooooooooooooooooooooooooooooooooooooooooooooooooooooooooooooooooooooooooooooooooooooooooooooooooo",
"oooooooooooooooooooooooooooooooooooooooooooooooooooooooooooooooooooooooooooooooooooooooooooooooooooooooooooooooooooooooooooooooo",
"oooooooooooooooooooooooooooooooooooooooooooooooooooooooooooooooooooooooooooooooooooooooooooooooooooooooooooooooooooooooooooooooo",
"oooooooooooooooooooooooooooooooooooooooooooooooooooooooooooooooooooooooooooooooooooooooooooooooooooooooooooooooooooooooooooooooo",
"oooooooooooooooooooooooooooooooooooooooooooooooooooooooooooooooooooooooooooooooooooooooooooooooooooooooooooooooooooooooooooooooo",
"oooooooooooooooooooooooooooooooooooooooooooooooooooooooooooooooooooooooooooooooooooooooooooooooooooooooooooooooooooooooooooooooo",
"oooooooooooooooooooooooooooooooooooooooooooooooooooooooooooooooooooooooooooooooooooooooooooooooooooooooooooooooooooooooooooooooo",
"oooooooooooooooooooooooooooooooooooooooooooooooooooooooooooooooooooooooooooooooooooooooooooooooooooooooooooooooooooooooooooooooo",
"oooooooooooooooooooooooooooooooooooooooooooooooooooooooooooooooooooooooooooooooooooooooooooooooooooooooooooooooooooooooooooooooo",
"oooooooooooooooooooooooooooooooooooooooooooooooooooooooooooooooooooooooooooooooooooooooooooooooooooooooooooooooooooooooooooooooo",
"oooooooooooooooooooooooooooooooooooooooooooooooooooooooooooooooooooooooooooooooooooooooooooooooooooooooooooooooooooooooooooooooo",
"oooooooooooooooooooooooooooooooooooooooooooooooooooooooooooooooooooooooooooooooooooooooooooooooooooooooooooooooooooooooooooooooo",
"oooooooooooooooooooooooooooooooooooooooooooooooooooooooooooooooooooooooooooooooooooooooooooooooooooooooooooooooooooooooooooooooo",
"oooooooooooooooooooooooooooooooooooooooooooooooooooooooooooooooooooooooooooooooooooooooooooooooooooooooooooooooooooooooooooooooo",
"oooooooooooooooooooooooooooooooooooooooooooooooooooooooooooooooooooooooooooooooooooooooooooooooooooooooooooooooooooooooooooooooo",
"oooooooooooooooooooooooooooooooooooooooooooooooooooooooooooooooooooooooooooooooooooooooooooooooooooooooooooooooooooooooooooooooo",
"oooooooooooooooooooooooooooooooooooooooooooooooooooooooooooooooooooooooooooooooooooooooooooooooooooooooooooooooooooooooooooooooo",
"oooooooooooooooooooooooooooooooooooooooooooooooooooooooooooooooooooooooooooooooooooooooooooooooooooooooooooooooooooooooooooooooo",
"oooooooooooooooooooooooooooooooooooooooooooooooooooooooooooooooooooooooooooooooooooooooooooooooooooooooooooooooooooooooooooooooo",
"oooooooooooooooooooooooooooooooooooooooooooooooooooooooooooooooooooooooooooooooooooooooooooooooooooooooooooooooooooooooooooooooo",
"oooooooooooooooooooooooooooooooooooooooooooooooooooooooooooooooooooooooooooooooooooooooooooooooooooooooooooooooooooooooooooooooo",
"ooooooooooooooooooooooooooooooooooooXX XXooooooooooooooooooooooooooooooooooooooooooooooooooooooooooooooooooooooooooooooooooooooo",
"oooooooooooooooooooooooooooooooX X XX X   X X XooooooooooooooooooXXXXXXXXXXXXXXXooooooooooooooooXXXXXXXXXXXXXXXXoooooooooooooooo",
"ooooooooooooooooooooooooooooX X X X  X XX  X X X oooooooooooooooo X X X X X  X XXoooooooooooooo X X X X X X X  Xoooooooooooooooo",
"ooooooooooooooooooooooooooX  X X X XX X  XX X X X XooooooooooooooX X X X X XX X  ooooooooooooooX X X X X X X XXooooooooooooooooo",
"ooooooooooooooooooooooooX X X X X X X X X X X X X X XooooooooooooX X X X X X X XXoooooooooooooX X X X X X X X Xooooooooooooooooo",
"oooooooooooooooooooooooXXX X X X X X X X X X X X X X Xooooooooooo X X X X X X X Xooooooooooooo X X X X X X X Xoooooooooooooooooo",
"ooooooooooooooooooooooX  XX X X X X X X X X X X X X X XooooooooooX X X X X X X X oooooooooooooX X X X X X X X oooooooooooooooooo",
"oooooooooooooooooooooX XX  X X X X X X X X X X X X X X XooooooooooX X X X X X X XooooooooooooX X X X X X X X Xoooooooooooooooooo",
"oooooooooooooooooooo X X X XX X X X X X X X X X X X X X XoooooooooX  X X X X X XXoooooooooooo X X X X X X  X ooooooooooooooooooo",
"oooooooooooooooooooXX X X X  X X X X X X X X X X X X X X Xoooooooo XX X X X X X  ooooooooooooX X X X X X XX Xooooooooooooooooooo",
"oooooooooooooooooooX X X X XX X X X X  XX X X X X X X X X ooooooooX  X X X X X XXoooooooooooX X X X X X X XXoooooooooooooooooooo",
"ooooooooooooooooooX X X X X  X X X Xoooooo X X X X X X X XooooooooX X X X X X X Xooooooooooo X X X X X X X  oooooooooooooooooooo",
"ooooooooooooooooooX X X X X X X X ooooooooo X X X X X X X XoooooooXX X X X X X X ooooooooooXX X X X X X X Xooooooooooooooooooooo",
"oooooooooooooooooo X X X X X X XXooooooooooX X X X X X X X oooooooo X X X X X X X oooooooooX X X X X X X X ooooooooooooooooooooo",
"ooooooooooooooooooX X X X X X X ooooooooooooX X X X X X X XooooooooX X X X X X XXXoooooooooXX X X X X X X oooooooooooooooooooooo",
"oooooooooooooooooX X X X X X X Xoooooooooooo X X X X X X X oooooooo X X X X X X  XooooooooX  X X X X X X Xoooooooooooooooooooooo",
"ooooooooooooooooo X X X X X X X oooooooooooo X X X XXX XX XooooooooX X X X X X XX ooooooooX X X X X X X Xooooooooooooooooooooooo",
"oooooooooooooooooX X X X X X X XoooooooooooooooooooooooooooooooooooXX X X X X X  XoooooooX X X X X X X X ooooooooooooooooooooooo",
"oooooooooooooooooXX X X X X X X ooooooooooooooooooooooooooooooooooo  X X X X X XX ooooooo X X X X X X X oooooooooooooooooooooooo",
"ooooooooooooooooo  X X X X X X XX ooooooooooooooooooooooooooooooooooX X X X X X  XoooooooX X X X X X X Xoooooooooooooooooooooooo",
"ooooooooooooooooooX X X X X X X  X XXoooooooooooooooooooooooooooooooX X  X X X XX ooooooX X X X X X X Xooooooooooooooooooooooooo",
"oooooooooooooooooo X X X X X X XX X X X oooooooooooooooooooooooooooo X XX X X X  Xoooooo X X X X X X XXooooooooooooooooooooooooo",
"ooooooooooooooooooX X X X X X X  X X X XX XoooooooooooooooooooooooooX X  X X X XX oooooXX X X X X X X oooooooooooooooooooooooooo",
"oooooooooooooooooooX X X X X X XX X X X  X X Xoooooooooooooooooooooo X XX X X X  XoooooX X X X X X X Xoooooooooooooooooooooooooo",
"ooooooooooooooooooooX X X X X X  X X X XX X X X ooooooooooooooooooooX X  X X X XX ooooo X X X X X X Xooooooooooooooooooooooooooo",
"oooooooooooooooooooo X X X X X XX X X X  X X X X Xoooooooooooooooooo   XX X X X  X oooXX X X X X X X ooooooooooooooooooooooooooo",
"ooooooooooooooooooooooX X X X X  X X X XX X X X X XooooooooooooooooooX X X X X XX XoooX X X X X X X Xooooooooooooooooooooooooooo",
"oooooooooooooooooooooooX X X X XX X X X  X X X X X Xooooooooooooooooo X X X X X  X ooX X X X X X X Xoooooooooooooooooooooooooooo",
"ooooooooooooooooooooooooXXX X X X X X X  X X X XX X XooooooooooooooooX X X X X XX XooXX X X X X X   oooooooooooooooooooooooooooo",
"oooooooooooooooooooooooooo X X X X X X XX X X X  X X Xooooooooooooooo X X X X X  X oo  X X X X X XXooooooooooooooooooooooooooooo",
"oooooooooooooooooooooooooooooXX X X X X  X X X XX X X  ooooooooooooooXX  X X X XX XoX X X X X X X Xooooooooooooooooooooooooooooo",
"oooooooooooooooooooooooooooooooX X X X XX X X X  X X XXooooooooooooooX XX X X X  X o X X X X X X Xoooooooooooooooooooooooooooooo",
"oooooooooooooooooooooooooooooooooooXX X  X X X XX X X XoooooooooooooooX  X X X X X X X XX X X X  Xoooooooooooooooooooooooooooooo",
"oooooooooooooooooooooooooooooooooooooo XX X X X  X X X ooooooooooooooo XX X X X X X X X  X X X XXooooooooooooooooooooooooooooooo",
"oooooooooooooooooooooooooooooooooooooooo X X X XX X X X ooooooooooooooX  X X X X X X X XX X X X Xooooooooooooooooooooooooooooooo",
"ooooooooooooooooooooooooooooooooooooooooo X X X  X X X Xoooooooooooooo XX X X X X X X X  X X X Xoooooooooooooooooooooooooooooooo",
"oooooooooooooXX X X X X X XooooooooooooooX X X XX X X X oooooooooooooo X X X X X X X X X X X X Xoooooooooooooooooooooooooooooooo",
"ooooooooooooo  X X X X X X oooooooooooooo X X X  X X X XooooooooooooooX X X X X X X X X X X X Xooooooooooooooooooooooooooooooooo",
"ooooooooooooo X X X X X X XooooooooooooooXX  X XX X  XX oooooooooooooooX X X X X X X X X X X XXooooooooooooooooooooooooooooooooo",
"oooooooooooooX X X X X X X  oooooooooooo X XX X  X XX XooooooooooooooooXX X X X X X X X X X X oooooooooooooooooooooooooooooooooo",
"oooooooooooooX XX X X X  X XoooooooooooXX X X X X X  X oooooooooooooooo  X X X X X X X X X X Xoooooooooooooooooooooooooooooooooo",
"ooooooooooooooX  X X X XX X XXooooooooX  X X X X X XX XooooooooooooooooXX X X X X X X X X X Xooooooooooooooooooooooooooooooooooo",
"oooooooooooooo XX X X X  X X XX XX X X XX X X X X X X XooooooooooooooooX X X X X X X X X X XXooooooooooooooooooooooooooooooooooo",
"ooooooooooooooXX X X X XX X X  XX X X X  X X X X X X Xooooooooooooooooo X X X X X X X X X X oooooooooooooooooooooooooooooooooooo",
"oooooooooooooooX X X X X X XX X  X X X X X X X X X X oooooooooooooooooooX X X X X X X X X X oooooooooooooooooooooooooooooooooooo",
"ooooooooooooooooX X X X X X  X XX X X X X X X X X X  ooooooooooooooooooo X X X X X X X X X Xoooooooooooooooooooooooooooooooooooo",
"oooooooooooooooooX X X X X XX X  X X X X X X X X X XooooooooooooooooooooX X X X X X X X X Xooooooooooooooooooooooooooooooooooooo",
"ooooooooooooooooooX X X X X  X XX X X X X X X X X Xooooooooooooooooooooo X X X X X X X X X ooooooooooooooooooooooooooooooooooooo",
"oooooooooooooooooooX X X XX X X  X X X X X X X XXoooooooooooooooooooooooX X X X X X X X X oooooooooooooooooooooooooooooooooooooo",
"ooooooooooooooooooooo X X  X X XX X X X X X X  Xoooooooooooooooooooooooo   X X X X X X X Xoooooooooooooooooooooooooooooooooooooo",
"oooooooooooooooooooooo X  X X X  X X X X X X XoooooooooooooooooooooooooooXX X X X X X X  ooooooooooooooooooooooooooooooooooooooo",
"oooooooooooooooooooooooooX X X XX X X X X XooooooooooooooooooooooooooooooX X X X X X X XXooooooooooooooooooooooooooooooooooooooo",
"ooooooooooooooooooooooooooooXXXX X X Xoooooooooooooooooooooooooooooooooooooooooooooooooooooooooooooooooooooooooooooooooooooooooo",
"oooooooooooooooooooooooooooooooooooooooooooooooooooooooooooooooooooooooooooooooooooooooooooooooooooooooooooooooooooooooooooooooo",
"oooooooooooooooooooooooooooooooooooooooooooooooooooooooooooooooooooooooooooooooooooooooooooooooooooooooooooooooooooooooooooooooo",
"oooooooooooooooooooooooooooooooooooooooooooooooooooooooooooooooooooooooooooooooooooooooooooooooooooooooooooooooooooooooooooooooo",
"oooooooooooooooooooooooooooooooooooooooooooooooooooooooooooooooooooooooooooooooooooooooooooooooooooooooooooooooooooooooooooooooo",
"oooooooooooooooooooooooooooooooooooooooooooooooooooooooooooooooooooooooooooooooooooooooooooooooooooooooooooooooooooooooooooooooo",
"oooooooooooooooooooooooooooooooooooooooooooooooooooooooooooooooooooooooooooooooooooooooooooooooooooooooooooooooooooooooooooooooo",
"oooooooooooooooooooooooooooooooooooooooooooooooooooooooooooooooooooooooooooooooooooooooooooooooooooooooooooooooooooooooooooooooo",
"oooooooooooooooooooooooooooooooooooooooooooooooooooooooooooooooooooooooooooooooooooooooooooooooooooooooooooooooooooooooooooooooo",
"oooooooooooooooooooooooooooooooooooooooooooooooooooooooooooooooooooooooooooooooooooooooooooooooooooooooooooooooooooooooooooooooo",
"oooooooooooooooooooooooooooooooooooooooooooooooooooooooooooooooooooooooooooooooooooooooooooooooooooooooooooooooooooooooooooooooo",
"oooooooooooooooooooooooooooooooooooooooooooooooooooooooooooooooooooooooooooooooooooooooooooooooooooooooooooooooooooooooooooooooo",
"oooooooooooooooooooooooooooooooooooooooooooooooooooooooooooooooooooooooooooooooooooooooooooooooooooooooooooooooooooooooooooooooo",
"oooooooooooooooooooooooooooooooooooooooooooooooooooooooooooooooooooooooooooooooooooooooooooooooooooooooooooooooooooooooooooooooo",
"oooooooooooooooooooooooooooooooooooooooooooooooooooooooooooooooooooooooooooooooooooooooooooooooooooooooooooooooooooooooooooooooo",
"oooooooooooooooooooooooooooooooooooooooooooooooooooooooooooooooooooooooooooooooooooooooooooooooooooooooooooooooooooooooooooooooo",
"oooooooooooooooooooooooooooooooooooooooooooooooooooooooooooooooooooooooooooooooooooooooooooooooooooooooooooooooooooooooooooooooo",
"oooooooooooooooooooooooooooooooooooooooooooooooooooooooooooooooooooooooooooooooooooooooooooooooooooooooooooooooooooooooooooooooo",
"oooooooooooooooooooooooooooooooooooooooooooooooooooooooooooooooooooooooooooooooooooooooooooooooooooooooooooooooooooooooooooooooo",
"oooooooooooooooooooooooooooooooooooooooooooooooooooooooooooooooooooooooooooooooooooooooooooooooooooooooooooooooooooooooooooooooo",
"oooooooooooooooooooooooooooooooooooooooooooooooooooooooooooooooooooooooooooooooooooooooooooooooooooooooooooooooooooooooooooooooo",
"oooooooooooooooooooooooooooooooooooooooooooooooooooooooooooooooooooooooooooooooooooooooooooooooooooooooooooooooooooooooooooooooo",
"oooooooooooooooooooooooooooooooooooooooooooooooooooooooooooooooooooooooooooooooooooooooooooooooooooooooooooooooooooooooooooooooo",
"oooooooooooooooooooooooooooooooooooooooooooooooooooooooooooooooooooooooooooooooooooooooooooooooooooooooooooooooooooooooooooooooo",
"oooooooooooooooooooooooooooooooooooooooooooooooooooooooooooooooooooooooooooooooooooooooooooooooooooooooooooooooooooooooooooooooo",
"oooooooooooooooooooooooooooooooooooooooooooooooooooooooooooooooooooooooooooooooooooooooooooooooooooooooooooooooooooooooooooooooo",
"oooooooooooooooooooooooooooooooooooooooooooooooooooooooooooooooooooooooooooooooooooooooooooooooooooooooooooooooooooooooooooooooo",
"oooooooooooooooooooooooooooooooooooooooooooooooooooooooooooooooooooooooooooooooooooooooooooooooooooooooooooooooooooooooooooooooo",
"oooooooooooooooooooooooooooooooooooooooooooooooooooooooooooooooooooooooooooooooooooooooooooooooooooooooooooooooooooooooooooooooo",
"oooooooooooooooooooooooooooooooooooooooooooooooooooooooooooooooooooooooooooooooooooooooooooooooooooooooooooooooooooooooooooooooo",
"oooooooooooooooooooooooooooooooooooooooooooooooooooooooooooooooooooooooooooooooooooooooooooooooooooooooooooooooooooooooooooooooo",
"oooooooooooooooooooooooooooooooooooooooooooooooooooooooooooooooooooooooooooooooooooooooooooooooooooooooooooooooooooooooooooooooo",
"oooooooooooooooooooooooooooooooooooooooooooooooooooooooooooooooooooooooooooooooooooooooooooooooooooooooooooooooooooooooooooooooo",
"oooooooooooooooooooooooooooooooooooooooooooooooooooooooooooooooooooooooooooooooooooooooooooooooooooooooooooooooooooooooooooooooo",
"oooooooooooooooooooooooooooooooooooooooooooooooooooooooooooooooooooooooooooooooooooooooooooooooooooooooooooooooooooooooooooooooo",
"oooooooooooooooooooooooooooooooooooooooooooooooooooooooooooooooooooooooooooooooooooooooooooooooooooooooooooooooooooooooooooooooo",
"oooooooooooooooooooooooooooooooooooooooooooooooooooooooooooooooooooooooooooooooooooooooooooooooooooooooooooooooooooooooooooooooo",
"oooooooooooooooooooooooooooooooooooooooooooooooooooooooooooooooooooooooooooooooooooooooooooooooooooooooooooooooooooooooooooooooo",
"oooooooooooooooooooooooooooooooooooooooooooooooooooooooooooooooooooooooooooooooooooooooooooooooooooooooooooooooooooooooooooooooo",
"oooooooooooooooooooooooooooooooooooooooooooooooooooooooooooooooooooooooooooooooooooooooooooooooooooooooooooooooooooooooooooooooo"
};
